<svg id="Layer_1" data-name="Layer 1" xmlns="http://www.w3.org/2000/svg" viewBox="0 0 2488.4717 349.0161"><defs><style>.cls-1,.cls-4{fill:#2c5976;}.cls-1,.cls-2,.cls-3{fill-rule:evenodd;}.cls-2{fill:none;}.cls-3{fill:#2c5a77;}</style></defs><path class="cls-1" d="M388.7275,175.8555h-23.23c-.1636.3169-.3658.5263-.3677.7363-.0186,3.8716-.0132,7.7427-.0132,11.6025a4.5384,4.5384,0,0,0,2.1934,1.1465q11.9838,4.6634,23.98,9.2954c2.69,1.0425,5.3829,2.0786,8.0694,3.127.4326.1684.8442.3872,1.248.5742a1.9608,1.9608,0,0,1-.1157.3638.561.561,0,0,1-.1831.165,4.2281,4.2281,0,0,1-.4326.231c-.2984.1391-.6.2724-.9014.4072q-22.0188,9.8232-44.0386,19.6489a3.3907,3.3907,0,0,0-.4292.2437,1.5824,1.5824,0,0,0-.1923.1709c.1909.6723.8256.71,1.31.9272q14.1042,6.3224,28.2168,12.6279,7.3382,3.28,14.6777,6.5572c.4453.1982.8741.436,1.5181.76-.8218.4229-1.4482.7867-2.106,1.08q-11.8615,5.2807-23.729,10.543-9.1545,4.0679-18.3,8.1514c-.5742.2563-1.2978.331-1.6572,1.144q3.2615,1.4758,6.5181,2.9482,3.2709,1.473,6.5478,2.9273,3.2761,1.46,6.5552,2.9121,3.1611,1.407,6.3262,2.8149,3.2739,1.4619,6.5464,2.9287c2.1821.9742,4.3833,1.9131,6.5454,2.9317a52.5937,52.5937,0,0,1,6.6255,3.1616c-3.2227,1.6055-6.336,2.8833-9.4,4.2656-3.0806,1.3921-6.17,2.7613-9.2573,4.1387q-4.7425,2.1161-9.4859,4.2315c-3.0874,1.374-6.1885,2.7221-9.2641,4.1225-3.0591,1.3926-6.1729,2.6709-9.146,4.1519.0219.7695.6147.834.999,1.0385,2.9824,1.59,5.9848,3.1421,8.977,4.7168.6485.3409,1.2759.7266,1.916,1.0943.2471,2.3911.0889,4.6987.1172,7,.0288,2.3926.0054,4.7842.0054,7.1758v6.7539c.6392.7832,1.3457.56,1.97.5625,6.27.0176,12.5386.0078,18.8076.0156.8062.001,1.6109.0586,2.482.0918a8.434,8.434,0,0,1,.1841,2.7891q.0189,16.3344.0083,32.6679c0,2.8877-.0269,5.7754.0043,8.6621.1187,11.1055-3.6093,20.8457-10.5024,29.4336A55.172,55.172,0,0,1,354.63,425.78a59.6807,59.6807,0,0,1-21.4937,4.1152q-.99.0043-1.98.0029-107.6536,0-215.3082.001a65.66,65.66,0,0,1-9.623-.542c-13.8306-2.039-25.8545-7.6787-35.4707-17.9687a46.0824,46.0824,0,0,1-11.8237-22.7481,35.6123,35.6123,0,0,1-.7857-6.87c-.0024-.9082-.01-1.8154-.01-2.7217q0-123.7427-.0137-247.4824a45.5863,45.5863,0,0,1,1.29-11.5171A46.9681,46.9681,0,0,1,73.79,96.5518a60.98,60.98,0,0,1,27.89-14.2124,61.9034,61.9034,0,0,1,13.7436-1.4561q108.0272.0124,216.0518.0068a61.5206,61.5206,0,0,1,39.5752,13.8785,47.07,47.07,0,0,1,15.9878,23.5976,39.8213,39.8213,0,0,1,1.7724,11.4492q.0213,22.1491.0083,44.2989C388.8193,174.5957,388.77,175.0757,388.7275,175.8555Zm-62.0986,47.645c3.0674-1.3848,6.0664-2.7466,9.0713-4.0942q17.1474-7.6963,34.293-15.3995c.3818-.1728.9526-.19,1.0776-.8764-.7539-.3242-1.4976-.6646-2.2568-.9644-3.68-1.4541-7.3662-2.8921-11.0445-4.35-.5224-.207-1.0156-.4912-1.58-.7676v-2.5361c0-5.5268.0083-11.0542-.01-16.582a2.3817,2.3817,0,0,0-.48-2.0469c-3.7929-.0249-7.7373-.0083-11.6826-.0112-3.9492-.003-7.8989-.001-12.1548-.001-.0361-1.1011-.0849-1.9111-.0849-2.7212q-.01-11.2625-.004-22.522,0-8.91-.0078-17.8188c-.0014-.6328.1866-1.3311-.4516-1.9024-.4312-.0214-.9219-.0664-1.4126-.0664q-107.0376.0241-214.0742.0562a.5527.5527,0,0,0-.24.0547.7552.7552,0,0,0-.1587.1411c-.08.1743-.2046.3183-.2046.4619q-.0329,123.62-.0444,247.2407a7.4633,7.4633,0,0,0,.1226.959,2.4311,2.4311,0,0,0,.73.2676q107.4089.0278,214.8188.02a2.6221,2.6221,0,0,0,.7417-.2568,7.2522,7.2522,0,0,0,.1733-2.6651q.0177-19.1791.0088-38.3613c0-.7422-.01-1.4854.0078-2.2266a1.2386,1.2386,0,0,1,.5171-1.2334c.6411-.0156,1.4536-.0488,2.2661-.0488,6.6-.0049,13.1983.0039,19.8-.0117a2.7779,2.7779,0,0,0,2.0337-.3731,35.9052,35.9052,0,0,0,.0855-4.3183c.0224-1.4024.0176-2.8047,0-4.2071-.0181-1.4746.084-2.9541-.0816-4.4687-.5337-.3291-1.0019-.6563-1.5014-.92q-4.27-2.2471-8.55-4.4688-8.6638-4.5132-17.3252-9.0351c-.564-.2954-1.2725-.44-1.5562-1.2369.6543-.3212,1.3052-.6684,1.9785-.9677q8.0216-3.5676,16.0518-7.12,12.7734-5.6676,25.54-11.3443c.4053-.18.9439-.2383,1.0147-.9389q-11.365-5.113-22.7549-10.2408c-7.5737-3.4233-15.1836-6.769-22.7588-10.2871a25.2852,25.2852,0,0,1,2.1934-1.2749q20.5481-9.1838,41.1289-18.3779a6.2265,6.2265,0,0,0,2.395-1.33c-.6763-.3315-1.2539-.6372-1.8486-.9033q-9.1488-4.08-18.3018-8.147" transform="translate(-58.1211 -80.8833)"/><path class="cls-2" d="M170.6445,330.6416c-.0659-.582-.1338-.9053-.1342-1.2256-.0064-7.92.0087-15.8389-.0245-23.7578a5.941,5.941,0,0,1,.7149-2.5791,17.4722,17.4722,0,0,0,1.0117-11.8384,16.9846,16.9846,0,0,0-21.2183-12.1c-8.9907,2.3609-15.603,12.146-11.4228,23.1187a11.0178,11.0178,0,0,1,.7939,4.0561q-.0387,12.1245.0054,24.25a31.8584,31.8584,0,0,0,.3887,4.92,29.382,29.382,0,0,0,12.5166,19.9658,29.6876,29.6876,0,0,0,17.1787,5.4327c2.7217.0332,5.4443.0058,8.1655.0058q48.0074,0,96.0152.0137a33.9355,33.9355,0,0,0,6.6464-.5488,30.0429,30.0429,0,0,0,24.523-29.1963c-.0684-20.291-.02-40.583-.02-60.875a27.6557,27.6557,0,0,0-.63-6.1382,30.2118,30.2118,0,0,0-22.8018-22.9385,36.02,36.02,0,0,0-8.1142-.708q-48.5.0007-97.003,0c-.7426,0-1.4868.0249-2.2275-.0107-.4731-.024-.9419-.1372-1.5386-.2305-.0068-.9868-.0176-1.8867-.0176-2.7876q-.0014-26.9736,0-53.9473c0-.66-.023-1.3208.0156-1.9785a9.4807,9.4807,0,0,1,.2436-1.2549h98.5738c.66,0,1.32-.0171,1.979.0108.3906.0166.7788.105,1.2734.1758.0327.9179.0845,1.7265.0859,2.5351.0049,7.1768-.0117,14.3521.0142,21.53a10.82,10.82,0,0,1-.791,4.3169,16.85,16.85,0,0,0-.6318,10.6812,17.2567,17.2567,0,1,0,32.4184-11.4961,9.6806,9.6806,0,0,1-.8623-4.0367c.0342-7.8359.01-15.6718.0195-23.5088a28.7229,28.7229,0,0,0-.9209-7.8325c-2.934-10.4985-9.74-17.3554-19.8686-21.042a28.7347,28.7347,0,0,0-9.9683-1.5151q-50.4828.0307-100.9648.0132c-.5777,0-1.1543.0107-1.7329.0088a23.1158,23.1158,0,0,0-5.6265.7466c-14.3511,3.5844-23.6118,15.89-23.4141,29.6381.04,2.7222.0059,5.4439.0059,8.167q0,25.7352-.0122,51.4717a28.21,28.21,0,0,0,.6934,6.8735c2.85,11.46,10.101,18.79,21.2236,22.4327a29.4587,29.4587,0,0,0,9.2871,1.1377q48.7515-.0111,97.5-.0039c.8252,0,1.65-.0132,2.4746.017a6.0381,6.0381,0,0,1,.9819.2012,8.9944,8.9944,0,0,1,.1729,2.7388q.0088,27.0966.0044,54.1933c0,.5762.0068,1.1543-.0078,1.7325-.0108.4062.0019.832-.41,1.0859-3.0254.3027-82.2441.4268-102.9126.1592C171.8145,330.7168,171.3325,330.6758,170.6445,330.6416Z" transform="translate(-58.1211 -80.8833)"/><path class="cls-3" d="M170.6445,330.6416c.688.0342,1.17.0752,1.6509.08,20.6685.2676,99.8872.1435,102.9126-.1592.4116-.2539.3989-.68.41-1.0859.0146-.5782.0078-1.1563.0078-1.7325q0-27.0958-.0044-54.1933a8.9944,8.9944,0,0,0-.1729-2.7388,6.0381,6.0381,0,0,0-.9819-.2012c-.8242-.03-1.6494-.017-2.4746-.017q-48.7492-.0015-97.5.0039a29.4587,29.4587,0,0,1-9.2871-1.1377c-11.1226-3.6431-18.3735-10.9732-21.2236-22.4327a28.21,28.21,0,0,1-.6934-6.8735q.0323-25.7373.0122-51.4717c0-2.7231.0342-5.4448-.0059-8.167-.1977-13.748,9.063-26.0537,23.4141-29.6381a23.1158,23.1158,0,0,1,5.6265-.7466c.5786.0019,1.1552-.0088,1.7329-.0088q50.4815,0,100.9648-.0132a28.7347,28.7347,0,0,1,9.9683,1.5151c10.1289,3.6866,16.9346,10.5435,19.8686,21.042a28.7229,28.7229,0,0,1,.9209,7.8325c-.01,7.837.0147,15.6729-.0195,23.5088a9.6806,9.6806,0,0,0,.8623,4.0367A17.2567,17.2567,0,1,1,274.2144,219.54a16.85,16.85,0,0,1,.6318-10.6812,10.82,10.82,0,0,0,.791-4.3169c-.0259-7.1777-.0093-14.353-.0142-21.53-.0014-.8086-.0532-1.6172-.0859-2.5351-.4946-.0708-.8828-.1592-1.2734-.1758-.6587-.0279-1.3194-.0108-1.979-.0108H173.7109a9.4807,9.4807,0,0,0-.2436,1.2549c-.0386.6577-.0156,1.3189-.0156,1.9785q0,26.9758,0,53.9473c0,.9009.0108,1.8008.0176,2.7876.5967.0933,1.0655.2065,1.5386.2305.7407.0356,1.4849.0107,2.2275.0107q48.5017,0,97.003,0a36.02,36.02,0,0,1,8.1142.708,30.2118,30.2118,0,0,1,22.8018,22.9385,27.6557,27.6557,0,0,1,.63,6.1382c0,20.292-.0484,40.584.02,60.875a30.0429,30.0429,0,0,1-24.523,29.1963,33.9355,33.9355,0,0,1-6.6464.5488q-48.0073-.0292-96.0152-.0137c-2.7212,0-5.4438.0274-8.1655-.0058a29.6876,29.6876,0,0,1-17.1787-5.4327,29.382,29.382,0,0,1-12.5166-19.9658,31.8584,31.8584,0,0,1-.3887-4.92q-.0579-12.1245-.0054-24.25a11.0178,11.0178,0,0,0-.7939-4.0561c-4.18-10.9727,2.4321-20.7578,11.4228-23.1187a16.9846,16.9846,0,0,1,21.2183,12.1,17.4722,17.4722,0,0,1-1.0117,11.8384,5.941,5.941,0,0,0-.7149,2.5791c.0332,7.9189.0181,15.8379.0245,23.7578C170.5107,329.7363,170.5786,330.06,170.6445,330.6416ZM283.7612,215.6a7.6629,7.6629,0,0,0,.0957,1.05,7.1408,7.1408,0,0,0,11.2486,4.6274,7.68,7.68,0,0,0,1.2016-11.1679,6.9626,6.9626,0,0,0-10.2964-.4717A7.4207,7.4207,0,0,0,283.7612,215.6ZM155.5264,303.187a6.5374,6.5374,0,0,0,5.688-2.8125,7.4591,7.4591,0,0,0,.6-8.37,6.7438,6.7438,0,0,0-5.6968-3.7861,7.2848,7.2848,0,0,0-7.7041,6.1894C147.5674,299.4033,151.5649,303.3745,155.5264,303.187Z" transform="translate(-58.1211 -80.8833)"/><path class="cls-2" d="M283.7612,215.6a7.4207,7.4207,0,0,1,2.25-5.9619,6.9626,6.9626,0,0,1,10.2964.4717,7.68,7.68,0,0,1-1.2016,11.1679,7.1408,7.1408,0,0,1-11.2486-4.6274A7.6629,7.6629,0,0,1,283.7612,215.6Z" transform="translate(-58.1211 -80.8833)"/><path class="cls-2" d="M155.5264,303.187c-3.9615.1875-7.959-3.7837-7.1128-8.7793a7.2848,7.2848,0,0,1,7.7041-6.1894,6.7438,6.7438,0,0,1,5.6968,3.7861,7.4591,7.4591,0,0,1-.6,8.37A6.5374,6.5374,0,0,1,155.5264,303.187Z" transform="translate(-58.1211 -80.8833)"/><path class="cls-4" d="M595.3721,373.3809H554.83q-29.387,0-45.3775-14.7525-15.9967-14.7531-15.9941-42.5019V204.7793q0-27.7434,15.9941-42.5015Q525.44,147.5255,554.83,147.5254h40.5425q29.0119,0,45.1919,14.9282,16.18,14.9334,16.18,42.3257v16.5088q0,7.7307-8.1827,7.7275H617.3169q-7.8105,0-7.8106-7.7275V206.8867q0-11.2368-5.0214-15.9819-5.0216-4.7417-16.9239-4.7417H562.2686q-11.5335,0-16.5518,4.7417-5.0208,4.7424-5.021,15.9819V314.019q0,11.2456,5.021,15.982,5.0215,4.7424,16.5518,4.7422H587.561q11.9,0,16.9239-4.7422,5.0214-4.7418,5.0214-15.982V299.6177q0-7.722,7.8106-7.7276H648.561q8.1768,0,8.1827,7.7276v16.5088q0,27.3976-16.18,42.3261Q624.3839,373.386,595.3721,373.3809Z" transform="translate(-58.1211 -80.8833)"/><path class="cls-4" d="M746.3813,154.9014v211.103q0,7.3763-7.811,7.3765H706.9546q-7.8105,0-7.8106-7.3765V154.9014q0-7.3762,7.8106-7.376H738.57Q746.3815,147.5254,746.3813,154.9014Z" transform="translate(-58.1211 -80.8833)"/><path class="cls-4" d="M836.02,373.3809H804.4048q-7.8112,0-7.811-7.3765V154.9014q0-7.3762,7.811-7.376h88.5234q29.012,0,45.378,15.1035,16.3629,15.107,16.3657,42.502v27.3974q0,39.6973-33.1035,52.688v1.4053l39.7988,78.3291q3.3471,8.43-6.3233,8.43H924.916q-6.6951,0-9.6709-1.4048-2.981-1.4-4.8349-5.9717l-37.1949-75.8706H848.2944q-4.4634,0-4.4633,3.8638v72.0068Q843.8311,373.3807,836.02,373.3809Zm11.9029-119.0747h36.4506q11.9,0,17.4815-4.7422,5.58-4.7418,5.58-15.2793v-27.398q0-10.8831-5.58-15.8061-5.5789-4.9146-17.4815-4.9175H847.9229q-4.098,0-4.0918,3.8638v60.4155Q843.8311,254.3118,847.9229,254.3062Z" transform="translate(-58.1211 -80.8833)"/><path class="cls-4" d="M1098.2432,373.3809h-40.5425q-29.387,0-45.3775-14.7525-15.9968-14.7531-15.9941-42.5019V204.7793q0-27.7434,15.9941-42.5015,15.988-14.7524,45.3775-14.7524h40.5425q29.012,0,45.1919,14.9282,16.18,14.9334,16.18,42.3257v16.5088q0,7.7307-8.1826,7.7275H1120.188q-7.8105,0-7.8106-7.7275V206.8867q0-11.2368-5.0214-15.9819-5.0216-4.7417-16.9239-4.7417H1065.14q-11.5333,0-16.5517,4.7417-5.0208,4.7424-5.021,15.9819V314.019q0,11.2456,5.021,15.982,5.0214,4.7424,16.5517,4.7422h25.2925q11.9,0,16.9239-4.7422,5.0214-4.7418,5.0214-15.982V299.6177q0-7.722,7.8106-7.7276h31.2441q8.1768,0,8.1826,7.7276v16.5088q0,27.3976-16.18,42.3261Q1127.2551,373.386,1098.2432,373.3809Z" transform="translate(-58.1211 -80.8833)"/><path class="cls-4" d="M1322.5264,147.5254h31.2441q8.1768,0,8.1826,7.0249V316.1265q0,27.3976-16.18,42.3261-16.1807,14.9334-45.1923,14.9283H1259.667q-29.3869,0-45.3779-14.7525-15.9961-14.7531-15.9937-42.5019V154.9014q0-7.3762,7.811-7.376h31.6158q7.8105,0,7.8105,7.376V314.019q0,11.2456,5.0215,15.982,5.0215,4.7424,16.5518,4.7422h25.6645q11.8989,0,16.9238-4.7422,5.0215-4.7418,5.0215-15.982V154.9014Q1314.7158,147.5252,1322.5264,147.5254Z" transform="translate(-58.1211 -80.8833)"/><path class="cls-4" d="M1457.542,154.9014v211.103q0,7.3763-7.8106,7.3765h-31.6152q-7.812,0-7.8115-7.3765V154.9014q0-7.3762,7.8115-7.376h31.6152Q1457.5421,147.5254,1457.542,154.9014Z" transform="translate(-58.1211 -80.8833)"/><path class="cls-4" d="M1581.7725,373.3809h-31.2432q-8.187,0-8.1836-7.3765V190.0269q0-3.8615-4.0908-3.8638h-42.4024q-7.81,0-7.8105-7.3765V154.9014q0-7.3762,7.8105-7.376h140.5967q7.81,0,7.8106,7.376v23.8852q0,7.3763-7.8106,7.3765h-42.4023q-4.4634,0-4.4629,3.8638V366.0044Q1589.584,373.3807,1581.7725,373.3809Z" transform="translate(-58.1211 -80.8833)"/><path class="cls-4" d="M1666.5752,315.7754v-7.0249q0-7.377,7.8105-7.3765h31.6163q7.8105,0,7.8105,7.3765v2.81q0,13.3529,5.5791,18.2652,5.58,4.9226,20.457,4.9175h17.4825q14.5048,0,20.27-5.2691,5.7627-5.2683,5.7656-19.67v-4.2153a17.3832,17.3832,0,0,0-8.7412-15.63q-8.7436-5.4418-21.7588-6.4985a247.4951,247.4951,0,0,1-28.082-4.0391,189.2779,189.2779,0,0,1-28.0821-7.728q-13.0239-4.7418-21.7588-18.6162-8.7437-13.8714-8.7412-35.6524V205.1309q0-27.3978,16.3662-42.502,16.3623-15.0981,45.377-15.1035h37.1953q29.3775,0,45.75,15.1035,16.3623,15.107,16.3652,42.502v6.6738q0,7.3762-7.8105,7.376H1787.83q-7.8106,0-7.8106-7.376v-2.1079q0-13.6984-5.5791-18.6162-5.58-4.9146-20.457-4.9175h-14.5059q-15.2564,0-20.6435,5.4443-5.3966,5.45-5.3936,21.251v6.6738q0,16.514,30.5,18.9673,31.61,2.4616,56.1641,11.9429,13.015,5.2683,21.7588,18.792,8.7363,13.5257,8.7412,34.5981v11.9429q0,27.3977-16.3652,42.5015-16.3727,15.1068-45.378,15.104h-40.5429q-29.0114,0-45.378-15.104Q1666.5694,343.1787,1666.5752,315.7754Z" transform="translate(-58.1211 -80.8833)"/><path class="cls-4" d="M1947.0186,373.3809h-31.2432q-8.187,0-8.1836-7.3765V190.0269q0-3.8615-4.0908-3.8638h-42.4024q-7.8105,0-7.8105-7.3765V154.9014q0-7.3762,7.8105-7.376h140.5967q7.81,0,7.8106,7.376v23.8852q0,7.3763-7.8106,7.3765H1959.293q-4.4634,0-4.4629,3.8638V366.0044Q1954.83,373.3807,1947.0186,373.3809Z" transform="translate(-58.1211 -80.8833)"/><path class="cls-4" d="M2062.6934,373.3809h-35.7071q-6.6957,0-4.4638-7.3765l58.7675-211.103q2.5988-7.3762,11.1592-7.376h49.4688q9.2929,0,11.1582,7.376l58.7685,211.103q2.2309,7.3763-4.4638,7.3765h-35.7071q-4.0971,0-5.5791-1.5806-1.4911-1.5806-2.2314-5.7959l-10.4151-38.6377h-72.53l-10.4141,38.6377q-.75,4.2152-2.418,5.7959C2066.9707,372.854,2065.1689,373.3809,2062.6934,373.3809Zm53.9326-183.354-26.78,101.5122h55.0479l-26.78-101.5122Z" transform="translate(-58.1211 -80.8833)"/><path class="cls-4" d="M2318.9619,373.3809h-31.2431q-8.1872,0-8.1836-7.3765V190.0269q0-3.8615-4.0909-3.8638H2233.042q-7.8105,0-7.8106-7.3765V154.9014q0-7.3762,7.8106-7.376h140.5967q7.8105,0,7.8105,7.376v23.8852q0,7.3763-7.8105,7.3765h-42.4024q-4.4634,0-4.4629,3.8638V366.0044Q2326.7734,373.3807,2318.9619,373.3809Z" transform="translate(-58.1211 -80.8833)"/><path class="cls-4" d="M2539.1543,373.3809H2417.5264q-7.8106,0-7.8106-7.3765V154.9014q0-7.3762,7.8106-7.376h121.6279q7.4355,0,7.4385,7.376v23.8852q0,7.3763-7.4385,7.3765H2461.417q-4.4634,0-4.4639,3.8638V235.69q0,3.8692,4.4639,3.8637H2525.02q7.812,0,7.8116,7.3765v23.8852q0,7.3762-7.8116,7.3765H2461.417q-4.4634,0-4.4639,3.8638v48.8242q0,3.8694,4.4639,3.8638h77.7373q7.4355,0,7.4385,7.3759v23.8853Q2546.5928,373.3807,2539.1543,373.3809Z" transform="translate(-58.1211 -80.8833)"/></svg>